<?xml version="1.0" encoding="UTF-8" standalone="no"?>
<svg width="1063px" height="355px" viewBox="0 0 1063 355" version="1.1" xmlns="http://www.w3.org/2000/svg" xmlns:xlink="http://www.w3.org/1999/xlink">
    <!-- Generator: Sketch 41.2 (35397) - http://www.bohemiancoding.com/sketch -->
    <title>ladoshki</title>
    <desc>Created with Sketch.</desc>
    <defs></defs>
    <g id="Page-1" stroke="none" stroke-width="1" fill="none" fill-rule="evenodd">
        <g id="ladoshki" transform="translate(0.000000, 1.000000)">
            <path d="M75.038455,14.37267 C75.038455,17.0321163 72.8825565,19.1880243 70.223099,19.1880243 C67.5636416,19.1880243 65.4077431,17.0321163 65.4077431,14.37267 C65.4077431,11.7132232 67.5636416,9.55731516 70.223099,9.55731516 C72.8825565,9.55731516 75.038455,11.7132232 75.038455,14.37267 Z" id="path6063-9-9-9-1-8-4-99-6-6-8-7" stroke="#000000" stroke-width="0.999212555" transform="translate(70.223099, 14.372670) scale(-1, 1) translate(-70.223099, -14.372670) "></path>
            <path d="M21.298255,232.16157 C21.298255,234.821016 19.1423565,236.976924 16.482899,236.976924 C13.8234416,236.976924 11.6675431,234.821016 11.6675431,232.16157 C11.6675431,229.502123 13.8234416,227.346215 16.482899,227.346215 C19.1423565,227.346215 21.298255,229.502123 21.298255,232.16157 Z" id="path6063-9-9-9-1-8-4-99-4-1-8-8-5" stroke="#000000" stroke-width="0.999212555" transform="translate(16.482899, 232.161570) scale(-1, 1) translate(-16.482899, -232.161570) "></path>
            <path d="M997.747063,14.37267 C997.747063,17.0321163 995.591164,19.1880243 992.931707,19.1880243 C990.272249,19.1880243 988.116351,17.0321163 988.116351,14.37267 C988.116351,11.7132232 990.272249,9.55731516 992.931707,9.55731516 C995.591164,9.55731516 997.747063,11.7132232 997.747063,14.37267 Z" id="path13185-5-4-5" stroke="#000000" stroke-width="0.999212555"></path>
            <path d="M1051.48726,232.16157 C1051.48726,234.821016 1049.33136,236.976924 1046.67191,236.976924 C1044.01245,236.976924 1041.85655,234.821016 1041.85655,232.16157 C1041.85655,229.502123 1044.01245,227.346215 1046.67191,227.346215 C1049.33136,227.346215 1051.48726,229.502123 1051.48726,232.16157 Z" id="path13187-0-3-7" stroke="#000000" stroke-width="0.999212555"></path>
            <polygon id="rect11976-7-9-9-9" stroke="#7A7A7A" stroke-width="0.99921262" points="58.821403 0.67014 0.821403 239.98264 331.821398 352.98264 530.852648 352.98264 532.321398 352.98264 731.321398 352.98264 1062.32144 239.98264 1004.3214 0.67014 531.571398 0.35764"></polygon>
            <path d="M417.98518,39.106235 C417.98518,41.7656813 415.829282,43.9215893 413.169824,43.9215893 C410.510367,43.9215893 408.354468,41.7656813 408.354468,39.106235 C408.354468,36.4467882 410.510367,34.2908802 413.169824,34.2908802 C415.829282,34.2908802 417.98518,36.4467882 417.98518,39.106235 Z" id="path6063-9-9-9-1-8-4-99-3-9-1-4-2" stroke="#000000" stroke-width="0.999212555" transform="translate(413.169824, 39.106235) scale(-1, 1) translate(-413.169824, -39.106235) "></path>
            <path d="M233.43035,302.149935 C233.43035,304.809381 231.274452,306.965289 228.614994,306.965289 C225.955537,306.965289 223.799638,304.809381 223.799638,302.149935 C223.799638,299.490488 225.955537,297.33458 228.614994,297.33458 C231.274452,297.33458 233.43035,299.490488 233.43035,302.149935 Z" id="path6063-9-9-9-1-8-4-99-7-5-1-4-0" stroke="#000000" stroke-width="0.999212555" transform="translate(228.614994, 302.149935) scale(-1, 1) translate(-228.614994, -302.149935) "></path>
            <path d="M654.800158,39.106235 C654.800158,41.7656813 652.644259,43.9215893 649.984802,43.9215893 C647.325344,43.9215893 645.169446,41.7656813 645.169446,39.106235 C645.169446,36.4467882 647.325344,34.2908802 649.984802,34.2908802 C652.644259,34.2908802 654.800158,36.4467882 654.800158,39.106235 Z" id="path13193-3-9-8" stroke="#000000" stroke-width="0.999212555"></path>
            <path d="M839.355163,302.149935 C839.355163,304.809381 837.199264,306.965289 834.539807,306.965289 C831.880349,306.965289 829.724451,304.809381 829.724451,302.149935 C829.724451,299.490488 831.880349,297.33458 834.539807,297.33458 C837.199264,297.33458 839.355163,299.490488 839.355163,302.149935 Z" id="path13199-5-6-0" stroke="#000000" stroke-width="0.999212555"></path>
        </g>
    </g>
</svg>